<svg id="project2" xmlns="http://www.w3.org/2000/svg" xmlns:xlink="http://www.w3.org/1999/xlink" width="517" height="455" viewBox="0 0 517 455">
  <defs>
    <style>
      .cls-1, .cls-5 {
        fill: #fff;
      }

      .cls-1 {
        stroke: #707070;
      }

      .cls-2 {
        fill: #0978cd;
        font-size: 35px;
        font-family: Montserrat-Regular, Montserrat;
      }

      .cls-3 {
        fill: #088aef;
      }

      .cls-4 {
        fill: #151d1d;
      }

      .cls-6 {
        stroke: none;
      }

      .cls-7 {
        fill: none;
      }

      .cls-8 {
        filter: url(#Rectangle_31);
      }
    </style>
    <filter id="Rectangle_31" x="12" y="13" width="490" height="281" filterUnits="userSpaceOnUse">
      <feOffset dy="3" input="SourceAlpha"/>
      <feGaussianBlur stdDeviation="10" result="blur"/>
      <feFlood flood-opacity="0.161"/>
      <feComposite operator="in" in2="blur"/>
      <feComposite in="SourceGraphic"/>
    </filter>
  </defs>
  <g id="Component_7_1" data-name="Component 7 – 1">
    <g id="Rectangle_30" data-name="Rectangle 30" class="cls-1">
      <rect class="cls-6" width="517" height="455" rx="20"/>
      <rect class="cls-7" x="0.5" y="0.5" width="516" height="454" rx="19.5"/>
    </g>
    <text id="Simple_Calculator" data-name="Simple Calculator" class="cls-2" transform="translate(259 357)"><tspan x="-107.047" y="0">My Personal</tspan><tspan x="-71.522" y="43">Website</tspan></text>
    <g class="cls-8" transform="matrix(1, 0, 0, 1, 0, 0)">
      <path id="Rectangle_31-2" data-name="Rectangle 31" class="cls-3" d="M20,0H410a20,20,0,0,1,20,20V201a20,20,0,0,1-20,20H20A20,20,0,0,1,0,201V20A20,20,0,0,1,20,0Z" transform="translate(42 40)"/>
    </g>
    <path id="Rectangle_20" data-name="Rectangle 20" class="cls-4" d="M20,0H410a20,20,0,0,1,20,20V33a0,0,0,0,1,0,0H0a0,0,0,0,1,0,0V20A20,20,0,0,1,20,0Z" transform="translate(42 40)"/>
    <rect id="Rectangle_21" data-name="Rectangle 21" class="cls-5" width="174" height="19" rx="9.5" transform="translate(247 97)"/>
    <rect id="Rectangle_22" data-name="Rectangle 22" class="cls-5" width="174" height="19" rx="9.5" transform="translate(247 123)"/>
    <rect id="Rectangle_23" data-name="Rectangle 23" class="cls-5" width="174" height="19" rx="9.5" transform="translate(247 149)"/>
    <rect id="Rectangle_24" data-name="Rectangle 24" class="cls-5" width="174" height="19" rx="9.5" transform="translate(247 175)"/>
    <rect id="Rectangle_25" data-name="Rectangle 25" class="cls-5" width="106" height="18" rx="9" transform="translate(247 202)"/>
    <rect id="Rectangle_26" data-name="Rectangle 26" class="cls-5" width="87" height="11" rx="5.5" transform="translate(94 177)"/>
    <rect id="Rectangle_27" data-name="Rectangle 27" class="cls-5" width="49" height="9" rx="4.5" transform="translate(113 197)"/>
    <ellipse id="Ellipse_1" data-name="Ellipse 1" class="cls-5" cx="34.5" cy="34" rx="34.5" ry="34" transform="translate(103 91)"/>
  </g>
</svg>
